<svg xmlns="http://www.w3.org/2000/svg" viewBox="0 0 204.134 60.553">
  <g id="Grupo_49444" data-name="Grupo 49444" transform="translate(-309.174 315.68)">
    <g id="Grupo_549" data-name="Grupo 549" transform="translate(348.591 -315.419)">
      <path id="Trazado_516" data-name="Trazado 516" d="M7245.392,4573.631c-.018.026-10.295,19.451,12.9,28.313v-3.781s9.26,4.3,17.609,1.564a30.677,30.677,0,0,1-18.13,10.172l-.262-3.259a32.574,32.574,0,0,1-17.119-5.4,23.224,23.224,0,0,0,41.685-.568c-1.834,2.161-6.856,3.418-6.856,3.418l2.365-4.921c-2.445.384-3.93-2.282-3.93-2.282,10.886.556,9.292-9.872,9.292-9.872l-1.54.47a8.285,8.285,0,0,0-2.556-6.957c1.289-.139,3.831,1.641,3.835,1.644a23.221,23.221,0,0,0-37.3-8.545" transform="translate(-7240.395 -4567.51)" fill="#fff"/>
    </g>
    <path id="Trazado_517" data-name="Trazado 517" d="M7257.487,4613.612a2.626,2.626,0,0,1-2.286-1.221,6.047,6.047,0,0,1-.007-6.117,2.62,2.62,0,0,1,2.292-1.228,3.3,3.3,0,0,1,.926.114,2.4,2.4,0,0,1,.695.345l-.267.654a2.491,2.491,0,0,0-.513-.229,2.118,2.118,0,0,0-.648-.1,1.717,1.717,0,0,0-1.631,1,5.351,5.351,0,0,0-.521,2.492,5.119,5.119,0,0,0,.532,2.46,1.722,1.722,0,0,0,1.609.987,2.116,2.116,0,0,0,.629-.079,2.346,2.346,0,0,0,.531-.249l.29.7a2.143,2.143,0,0,1-.7.337,3.339,3.339,0,0,1-.932.122" transform="translate(-6886.528 -4868.751)" fill="#fff"/>
    <path id="Trazado_518" data-name="Trazado 518" d="M7259.323,4605.852a.622.622,0,0,1-.447-.169.537.537,0,0,1-.183-.412.545.545,0,0,1,.183-.421.627.627,0,0,1,.447-.17.615.615,0,0,1,.435.17.539.539,0,0,1,.181.421.531.531,0,0,1-.181.412.61.61,0,0,1-.435.169m-.533,1.258h1.067v6.522h-1.067Z" transform="translate(-6884.893 -4868.891)" fill="#fff"/>
    <path id="Trazado_519" data-name="Trazado 519" d="M7263.581,4612.964h-.957l-2.166-6.521h1.136l1.359,4.672a3.394,3.394,0,0,1,.121.493,2.4,2.4,0,0,0,.057.3c.016-.1.036-.2.055-.307s.063-.271.13-.491l1.388-4.67h.991Z" transform="translate(-6884.227 -4868.225)" fill="#fff"/>
    <path id="Trazado_520" data-name="Trazado 520" d="M7265.723,4605.852a.62.62,0,0,1-.446-.169.54.54,0,0,1-.182-.412.547.547,0,0,1,.182-.421.625.625,0,0,1,.446-.17.615.615,0,0,1,.437.17.55.55,0,0,1,.181.421.542.542,0,0,1-.181.412.61.61,0,0,1-.437.169m-.532,1.258h1.065v6.522h-1.065Z" transform="translate(-6882.476 -4868.891)" fill="#fff"/>
    <rect id="Rectángulo_161" data-name="Rectángulo 161" width="1.065" height="9.495" transform="translate(385.631 -264.755)" fill="#fff"/>
    <path id="Trazado_521" data-name="Trazado 521" d="M7274.757,4613.612a2.624,2.624,0,0,1-2.285-1.221,6.044,6.044,0,0,1-.008-6.117,2.622,2.622,0,0,1,2.293-1.228,3.3,3.3,0,0,1,.926.114,2.416,2.416,0,0,1,.7.345l-.27.654a2.4,2.4,0,0,0-.514-.229,2.09,2.09,0,0,0-.647-.1,1.72,1.72,0,0,0-1.631,1,5.388,5.388,0,0,0-.519,2.492,5.142,5.142,0,0,0,.53,2.46,1.724,1.724,0,0,0,1.61.987,2.128,2.128,0,0,0,.63-.079,2.38,2.38,0,0,0,.53-.249l.29.7a2.143,2.143,0,0,1-.7.337,3.323,3.323,0,0,1-.932.122" transform="translate(-6880.004 -4868.751)" fill="#fff"/>
    <path id="Trazado_522" data-name="Trazado 522" d="M7278.352,4613.118a2.17,2.17,0,0,1-1.913-.932,5.035,5.035,0,0,1-.005-4.906,2.448,2.448,0,0,1,3.829,0,5.111,5.111,0,0,1-.007,4.918,2.16,2.16,0,0,1-1.9.924m0-6.083a1.168,1.168,0,0,0-1.17.761,5.1,5.1,0,0,0-.32,1.947,4.825,4.825,0,0,0,.32,1.913,1.173,1.173,0,0,0,1.17.726,1.155,1.155,0,0,0,1.159-.732,4.851,4.851,0,0,0,.315-1.906,5.1,5.1,0,0,0-.315-1.952,1.153,1.153,0,0,0-1.159-.756" transform="translate(-6878.433 -4868.258)" fill="#fff"/>
    <path id="Trazado_523" data-name="Trazado 523" d="M7284.221,4613v-4.681a1.375,1.375,0,0,0-.3-.908,1.321,1.321,0,0,0-1.063-.362,3.4,3.4,0,0,0-.678.055,2.937,2.937,0,0,0-.557.175V4613h-1.063v-6.182a4.349,4.349,0,0,1,1.04-.343,6.8,6.8,0,0,1,1.344-.116,2.427,2.427,0,0,1,1.793.563,1.878,1.878,0,0,1,.553,1.374v4.7Z" transform="translate(-6876.634 -4868.258)" fill="#fff"/>
    <path id="Trazado_524" data-name="Trazado 524" d="M7286.615,4613.1a3.565,3.565,0,0,1-.962-.121,2.2,2.2,0,0,1-.708-.327l.291-.7a1.467,1.467,0,0,0,.526.279,2.383,2.383,0,0,0,.744.108,1.2,1.2,0,0,0,.871-.326,1.17,1.17,0,0,0,.086-1.554,2.718,2.718,0,0,0-.975-.544,2.184,2.184,0,0,1-1.045-.732,1.742,1.742,0,0,1-.329-1.04,1.7,1.7,0,0,1,.539-1.277,1.956,1.956,0,0,1,1.409-.514,2.706,2.706,0,0,1,.848.122,2.663,2.663,0,0,1,.676.334l-.278.632a2.208,2.208,0,0,0-.472-.24,1.742,1.742,0,0,0-.615-.112,1.067,1.067,0,0,0-.806.3,1.015,1.015,0,0,0-.284.731.934.934,0,0,0,.277.7,3.11,3.11,0,0,0,.991.536,2.293,2.293,0,0,1,1.06.736,1.8,1.8,0,0,1,.344,1.1,1.775,1.775,0,0,1-.609,1.342,2.236,2.236,0,0,1-1.579.567" transform="translate(-6874.977 -4868.261)" fill="#fff"/>
    <path id="Trazado_525" data-name="Trazado 525" d="M7290.875,4613.515a1.509,1.509,0,0,1-1.224-.477,1.761,1.761,0,0,1-.4-1.165v-4.261h-.751v-.667h.751v-1.5l1.064-.327v1.829h1.137v.667h-1.137v4.226a1.1,1.1,0,0,0,.2.68.746.746,0,0,0,.626.259c.063,0,.167-.008.313-.024v.677c-.089.021-.177.042-.266.058a1.562,1.562,0,0,1-.314.028" transform="translate(-6873.634 -4868.727)" fill="#fff"/>
    <path id="Trazado_526" data-name="Trazado 526" d="M7294.156,4607.176a2.659,2.659,0,0,0-.642-.073,1.6,1.6,0,0,0-.847.205v5.686H7291.6v-6.169a3.771,3.771,0,0,1,1.088-.355,10.575,10.575,0,0,1,1.718-.1Z" transform="translate(-6872.465 -4868.254)" fill="#fff"/>
    <path id="Trazado_527" data-name="Trazado 527" d="M7296.741,4613.1a2.4,2.4,0,0,1-1.75-.557,2.122,2.122,0,0,1-.562-1.573v-4.524h1.064v4.571a1.415,1.415,0,0,0,.326.974,1.243,1.243,0,0,0,.981.37,2.275,2.275,0,0,0,1.172-.266v-5.65h1.063v6.134a3.832,3.832,0,0,1-.971.375,5.442,5.442,0,0,1-1.325.146" transform="translate(-6871.396 -4868.225)" fill="#fff"/>
    <path id="Trazado_528" data-name="Trazado 528" d="M7301.3,4613.118a2.128,2.128,0,0,1-1.783-.914,4.818,4.818,0,0,1,0-4.954,2.163,2.163,0,0,1,1.807-.894,2.546,2.546,0,0,1,.9.128,1.651,1.651,0,0,1,.546.307l-.254.616a2.14,2.14,0,0,0-.413-.217,1.491,1.491,0,0,0-.557-.1,1.335,1.335,0,0,0-1.251.688,3.87,3.87,0,0,0-.394,1.91,3.8,3.8,0,0,0,.418,1.913,1.309,1.309,0,0,0,1.19.726,1.637,1.637,0,0,0,.546-.078,1.939,1.939,0,0,0,.447-.237l.267.667a1.52,1.52,0,0,1-.576.313,2.88,2.88,0,0,1-.889.122" transform="translate(-6869.731 -4868.258)" fill="#fff"/>
    <path id="Trazado_529" data-name="Trazado 529" d="M7304.72,4613.515a1.5,1.5,0,0,1-1.222-.477,1.762,1.762,0,0,1-.4-1.165v-4.261h-.75v-.667h.75v-1.5l1.065-.327v1.829h1.137v.667h-1.137v4.226a1.081,1.081,0,0,0,.2.68.74.74,0,0,0,.625.259c.063,0,.166-.008.313-.024v.677c-.089.021-.179.042-.268.058a1.525,1.525,0,0,1-.314.028" transform="translate(-6868.405 -4868.727)" fill="#fff"/>
    <path id="Trazado_530" data-name="Trazado 530" d="M7306.06,4605.852a.619.619,0,0,1-.446-.169.536.536,0,0,1-.182-.412.544.544,0,0,1,.182-.421.623.623,0,0,1,.446-.17.613.613,0,0,1,.436.17.547.547,0,0,1,.182.421.54.54,0,0,1-.182.412.608.608,0,0,1-.436.169m-.533,1.258h1.066v6.522h-1.066Z" transform="translate(-6867.241 -4868.891)" fill="#fff"/>
    <path id="Trazado_531" data-name="Trazado 531" d="M7309.933,4613.118a2.166,2.166,0,0,1-1.91-.932,4.224,4.224,0,0,1-.643-2.444,4.277,4.277,0,0,1,.635-2.462,2.45,2.45,0,0,1,3.83,0,5.113,5.113,0,0,1-.006,4.918,2.161,2.161,0,0,1-1.906.924m0-6.083a1.162,1.162,0,0,0-1.166.761,5.043,5.043,0,0,0-.322,1.947,4.77,4.77,0,0,0,.322,1.913,1.293,1.293,0,0,0,2.328-.007,4.889,4.889,0,0,0,.314-1.906,5.143,5.143,0,0,0-.314-1.952,1.156,1.156,0,0,0-1.162-.756" transform="translate(-6866.506 -4868.258)" fill="#fff"/>
    <path id="Trazado_532" data-name="Trazado 532" d="M7315.806,4613v-4.681a1.361,1.361,0,0,0-.3-.908,1.317,1.317,0,0,0-1.063-.362,3.394,3.394,0,0,0-.676.055,2.956,2.956,0,0,0-.558.175V4613h-1.063v-6.182a4.349,4.349,0,0,1,1.04-.343,6.8,6.8,0,0,1,1.343-.116,2.432,2.432,0,0,1,1.8.563,1.882,1.882,0,0,1,.551,1.374v4.7Z" transform="translate(-6864.709 -4868.258)" fill="#fff"/>
    <rect id="Rectángulo_162" data-name="Rectángulo 162" width="55.509" height="1.659" transform="translate(309.174 -259.668)" fill="#fff"/>
    <rect id="Rectángulo_163" data-name="Rectángulo 163" width="58.233" height="1.659" transform="translate(455.074 -259.668)" fill="#fff"/>
    <path id="Trazado_533" data-name="Trazado 533" d="M7249,4575.453h-1.615a4.817,4.817,0,0,0-1.457-1.94,8.4,8.4,0,0,0-2.782-1.392,13.33,13.33,0,0,0-3.687-.453h-6.017v33.475a18.443,18.443,0,0,0,.421,4.625,3.564,3.564,0,0,0,1.91,1.714h.742v1.649H7224.1v-1.649h.778a3.334,3.334,0,0,0,1.974-1.876,21.977,21.977,0,0,0,.356-4.462v-33.475h-5.563c-.842,0-1.607.024-2.3.064s-1.3.1-1.843.163a6.186,6.186,0,0,0-2.442,1.181,5.413,5.413,0,0,0-1.666,2.376h-1.585l-.028-7.85,37.22-.1Z" transform="translate(-6902.607 -4882.934)" fill="#fff"/>
    <path id="Trazado_534" data-name="Trazado 534" d="M7310.024,4575.453h-1.616a4.809,4.809,0,0,0-1.457-1.94,8.436,8.436,0,0,0-2.78-1.392,13.346,13.346,0,0,0-3.687-.453h-6.016v33.475a18.523,18.523,0,0,0,.42,4.625,3.558,3.558,0,0,0,1.907,1.714h.745v1.649h-12.42v-1.649h.778a3.328,3.328,0,0,0,1.971-1.876,21.83,21.83,0,0,0,.356-4.462v-33.475h-5.563c-.841,0-1.608.024-2.3.064s-1.3.1-1.843.163a6.2,6.2,0,0,0-2.442,1.181,5.416,5.416,0,0,0-1.666,2.376h-1.584l-.031-7.85,37.224-.1Z" transform="translate(-6879.564 -4882.934)" fill="#fff"/>
    <path id="Trazado_535" data-name="Trazado 535" d="M7332.074,4610.465l.54,2.974h12.226c-.085-.3-.167-.607-.242-.92a9.065,9.065,0,0,0-.274-.923,6.4,6.4,0,0,1-2.589-1.971,32.446,32.446,0,0,1-1.567-2.911q-.794-1.651-1.633-3.688-3.721-8.988-7.391-17.852t-7.391-17.853h-3.944q-3.625,8.926-7.213,17.754t-7.211,17.757q-.876,2.136-1.683,3.851t-1.584,3.039a5.009,5.009,0,0,1-.891.969,7.774,7.774,0,0,1-1.373.905l-.484,1.843h9.523c.064-.3.134-.6.21-.89s.144-.587.209-.888c-1.058-.108-1.847-.168-2.07-.486-.352-.5.093-1.608.072-1.557l4.408-10.7h18.4l3.446,9.152s.573,1.411-1.49,2.4m-18.961-15.3,7.7-20.344,7.894,20.344Z" transform="translate(-6869.531 -4883)" fill="#fff"/>
    <path id="Trazado_536" data-name="Trazado 536" d="M7368.386,4604.269l.794,0c-.3,1.293-.885,3.65-1.2,4.944s-.628,2.6-.952,3.914h-31.792v-1.584c.791-.9,2.446-2.641,2.813-3.848a20.971,20.971,0,0,0,.357-4.4v-25.969a26.553,26.553,0,0,0-.791-7.015,8.05,8.05,0,0,0-2.331-.391V4567.5H7348.3v2.586a6.373,6.373,0,0,0-2.456.323,9.724,9.724,0,0,0-.939,2.846,19.97,19.97,0,0,0-.21,2.377q-.049,1.343-.05,3.09v25.741c0,.778.017,1.484.05,2.121a10.381,10.381,0,0,0,.21,1.7c.388.109.792.209,1.212.307a10.012,10.012,0,0,0,1.31.21q.712.066,1.829.112t2.669.051h3.523a43.509,43.509,0,0,0,6.468-.39,9.2,9.2,0,0,0,6.469-4.3" transform="translate(-6855.985 -4882.934)" fill="#fff"/>
  </g>
</svg>